SET_VELOCITY<50.0>
NOTE_ON<62>
TIME_SHIFT<125.0>
NOTE_OFF<62.0>
NOTE_ON<62>
TIME_SHIFT<125.0>
NOTE_OFF<62.0>
NOTE_ON<74>
TIME_SHIFT<125.0>
NOTE_OFF<74.0>
TIME_SHIFT<125.0>
NOTE_ON<69>
TIME_SHIFT<125.0>
NOTE_OFF<69.0>
TIME_SHIFT<250.0>
NOTE_ON<68>
TIME_SHIFT<125.0>
NOTE_OFF<68.0>
TIME_SHIFT<125.0>
NOTE_ON<67>
TIME_SHIFT<125.0>
NOTE_OFF<67.0>
TIME_SHIFT<125.0>
NOTE_ON<65>
TIME_SHIFT<125.0>
NOTE_OFF<65.0>
TIME_SHIFT<125.0>
NOTE_ON<62>
TIME_SHIFT<125.0>
NOTE_OFF<62.0>
NOTE_ON<65>
TIME_SHIFT<125.0>
NOTE_OFF<65.0>
NOTE_ON<67>
TIME_SHIFT<125.0>
NOTE_OFF<67.0>
NOTE_ON<60>
TIME_SHIFT<125.0>
NOTE_OFF<60.0>
NOTE_ON<60>
TIME_SHIFT<125.0>
NOTE_OFF<60.0>
NOTE_ON<74>
TIME_SHIFT<125.0>
NOTE_OFF<74.0>
TIME_SHIFT<125.0>
NOTE_ON<69>
TIME_SHIFT<125.0>
NOTE_OFF<69.0>
TIME_SHIFT<250.0>
NOTE_ON<68>
TIME_SHIFT<125.0>
NOTE_OFF<68.0>
TIME_SHIFT<125.0>
NOTE_ON<67>
TIME_SHIFT<125.0>
NOTE_OFF<67.0>
TIME_SHIFT<125.0>
NOTE_ON<65>
TIME_SHIFT<125.0>
NOTE_OFF<65.0>
TIME_SHIFT<125.0>
NOTE_ON<62>
TIME_SHIFT<125.0>
NOTE_OFF<62.0>
NOTE_ON<65>
TIME_SHIFT<125.0>
NOTE_OFF<65.0>
NOTE_ON<67>
TIME_SHIFT<125.0>
NOTE_OFF<67.0>
NOTE_ON<59>
TIME_SHIFT<125.0>
NOTE_OFF<59.0>
NOTE_ON<59>
TIME_SHIFT<125.0>
NOTE_OFF<59.0>
NOTE_ON<74>
TIME_SHIFT<125.0>
NOTE_OFF<74.0>
TIME_SHIFT<125.0>
NOTE_ON<69>
TIME_SHIFT<125.0>
NOTE_OFF<69.0>
TIME_SHIFT<250.0>
NOTE_ON<68>
TIME_SHIFT<125.0>
NOTE_OFF<68.0>
TIME_SHIFT<125.0>
NOTE_ON<67>
TIME_SHIFT<125.0>
NOTE_OFF<67.0>
TIME_SHIFT<125.0>
NOTE_ON<65>
TIME_SHIFT<125.0>
NOTE_OFF<65.0>
TIME_SHIFT<125.0>
NOTE_ON<62>
TIME_SHIFT<125.0>
NOTE_OFF<62.0>
NOTE_ON<65>
TIME_SHIFT<125.0>
NOTE_OFF<65.0>
NOTE_ON<67>
TIME_SHIFT<125.0>
NOTE_OFF<67.0>
NOTE_ON<58>
TIME_SHIFT<125.0>
NOTE_OFF<58.0>
NOTE_ON<58>
TIME_SHIFT<125.0>
NOTE_OFF<58.0>
NOTE_ON<74>
TIME_SHIFT<125.0>
NOTE_OFF<74.0>
TIME_SHIFT<125.0>
NOTE_ON<69>
TIME_SHIFT<125.0>
NOTE_OFF<69.0>
TIME_SHIFT<250.0>
NOTE_ON<68>
TIME_SHIFT<125.0>
NOTE_OFF<68.0>
TIME_SHIFT<125.0>
NOTE_ON<67>
TIME_SHIFT<125.0>
NOTE_OFF<67.0>
TIME_SHIFT<125.0>
NOTE_ON<65>
TIME_SHIFT<125.0>
NOTE_OFF<65.0>
TIME_SHIFT<125.0>
NOTE_ON<62>
TIME_SHIFT<125.0>
NOTE_OFF<62.0>
NOTE_ON<65>
TIME_SHIFT<125.0>
NOTE_OFF<65.0>
NOTE_ON<67>
TIME_SHIFT<125.0>
NOTE_OFF<67.0>
NOTE_ON<62>
TIME_SHIFT<125.0>
NOTE_OFF<62.0>
NOTE_ON<62>
TIME_SHIFT<125.0>
NOTE_OFF<62.0>
NOTE_ON<74>
TIME_SHIFT<125.0>
NOTE_OFF<74.0>
TIME_SHIFT<125.0>
NOTE_ON<69>
TIME_SHIFT<125.0>
NOTE_OFF<69.0>
TIME_SHIFT<250.0>
NOTE_ON<68>
TIME_SHIFT<125.0>
NOTE_OFF<68.0>
TIME_SHIFT<125.0>
NOTE_ON<67>
TIME_SHIFT<125.0>
NOTE_OFF<67.0>
TIME_SHIFT<125.0>
NOTE_ON<65>
TIME_SHIFT<125.0>
NOTE_OFF<65.0>
TIME_SHIFT<125.0>
NOTE_ON<62>
TIME_SHIFT<125.0>
NOTE_OFF<62.0>
NOTE_ON<65>
TIME_SHIFT<125.0>
NOTE_OFF<65.0>
NOTE_ON<67>
TIME_SHIFT<125.0>
NOTE_OFF<67.0>
NOTE_ON<60>
TIME_SHIFT<125.0>
NOTE_OFF<60.0>
NOTE_ON<60>
TIME_SHIFT<125.0>
NOTE_OFF<60.0>
NOTE_ON<74>
TIME_SHIFT<125.0>
NOTE_OFF<74.0>
TIME_SHIFT<125.0>
NOTE_ON<69>
TIME_SHIFT<125.0>
NOTE_OFF<69.0>
NOTE_ON<61>
TIME_SHIFT<125.0>
NOTE_OFF<61.0>
TIME_SHIFT<125.0>
NOTE_ON<68>
TIME_SHIFT<125.0>
NOTE_OFF<68.0>
TIME_SHIFT<125.0>
NOTE_ON<67>
TIME_SHIFT<125.0>
NOTE_OFF<67.0>
TIME_SHIFT<125.0>
NOTE_ON<65>
TIME_SHIFT<125.0>
NOTE_OFF<65.0>
TIME_SHIFT<125.0>
NOTE_ON<62>
TIME_SHIFT<125.0>
NOTE_OFF<62.0>
NOTE_ON<65>
TIME_SHIFT<125.0>
NOTE_OFF<65.0>
NOTE_ON<67>
TIME_SHIFT<125.0>
NOTE_OFF<67.0>
NOTE_ON<59>
TIME_SHIFT<125.0>
NOTE_OFF<59.0>
NOTE_ON<59>
TIME_SHIFT<125.0>
NOTE_OFF<59.0>
NOTE_ON<74>
TIME_SHIFT<125.0>
NOTE_OFF<74.0>
TIME_SHIFT<125.0>
NOTE_ON<69>
TIME_SHIFT<125.0>
NOTE_OFF<69.0>
TIME_SHIFT<250.0>
NOTE_ON<68>
TIME_SHIFT<125.0>
NOTE_OFF<68.0>
TIME_SHIFT<125.0>
NOTE_ON<67>
TIME_SHIFT<125.0>
NOTE_OFF<67.0>
TIME_SHIFT<125.0>
NOTE_ON<65>
TIME_SHIFT<125.0>
NOTE_OFF<65.0>
TIME_SHIFT<125.0>
NOTE_ON<62>
TIME_SHIFT<125.0>
NOTE_OFF<62.0>
NOTE_ON<65>
TIME_SHIFT<125.0>
NOTE_OFF<65.0>
NOTE_ON<67>
TIME_SHIFT<125.0>
NOTE_OFF<67.0>
NOTE_ON<58>
TIME_SHIFT<125.0>
NOTE_OFF<58.0>
NOTE_ON<58>
TIME_SHIFT<125.0>
NOTE_OFF<58.0>
NOTE_ON<74>
TIME_SHIFT<125.0>
NOTE_OFF<74.0>
TIME_SHIFT<125.0>
NOTE_ON<69>
TIME_SHIFT<125.0>
NOTE_OFF<69.0>
TIME_SHIFT<250.0>
NOTE_ON<68>
TIME_SHIFT<125.0>
NOTE_OFF<68.0>
TIME_SHIFT<125.0>
NOTE_ON<67>
TIME_SHIFT<125.0>
NOTE_OFF<67.0>
TIME_SHIFT<125.0>
NOTE_ON<65>
TIME_SHIFT<125.0>
NOTE_OFF<65.0>
TIME_SHIFT<125.0>
NOTE_ON<62>
TIME_SHIFT<125.0>
NOTE_OFF<62.0>
NOTE_ON<65>
TIME_SHIFT<125.0>
NOTE_OFF<65.0>
